<svg xmlns="http://www.w3.org/2000/svg" baseProfile="tiny" viewBox="0 0 128 128" overflow="visible" xmlns:v="https://vecta.io/nano"><path fill="#fff" d="M112.8 43.6c-.7.6-13.9 8-13.9 24.4 0 19 16.7 25.7 17.2 25.9-.1.4-2.6 9.2-8.8 18.2-5.5 7.9-11.2 15.8-19.9 15.8s-10.9-5.1-21-5.1c-9.8 0-13.3 5.2-21.2 5.2s-13.5-7.3-19.9-16.3c-7.4-10.5-13.4-26.9-13.4-42.4 0-24.9 16.2-38.1 32.1-38.1 8.5 0 15.5 5.6 20.8 5.6 5.1 0 12.9-5.9 22.6-5.9 3.6 0 16.8.4 25.4 12.7h0zm-30-23.2c4-4.7 6.8-11.3 6.8-17.8 0-.9-.1-1.8-.2-2.6-6.5.2-14.2 4.3-18.8 9.7-3.6 4.1-7.1 10.7-7.1 17.3 0 1 .2 2 .2 2.3a7.93 7.93 0 0 0 1.7.2c5.9 0 13.2-3.9 17.4-9.1h0z"/></svg>