<svg xmlns="http://www.w3.org/2000/svg" baseProfile="tiny" viewBox="0 0 512 512" overflow="visible" xmlns:v="https://vecta.io/nano"><g fill="#ffa712"><path d="M69.6 413.3l3.1-4.4 146.6-278.2.3-2.9L154.9 6.4c-5.4-10.2-20.6-7.6-22.4 3.8L69.6 413.3z"/><path d="M266.7 219.6l48.1-49.3-48.1-91.9c-4.5-8.7-17.3-8.7-21.8 0l-25.7 49.1v4.2l47.5 87.9z"/></g><path fill="#f6820c" d="M69.6 413.3l1.4-1.4 5-2.1 187.6-186.9 2.5-6.5-46.9-89.2z"/><path fill="#fcca3f" d="M272.7 507.5l169.8-94.7L394 114.2c-1.5-9.4-13-13-19.7-6.3L69.6 413.3l168.8 94.2c10.6 6 23.6 6 34.3 0"/></svg>