<svg xmlns="http://www.w3.org/2000/svg" baseProfile="tiny" viewBox="0 0 128 128" overflow="visible" fill-rule="evenodd" xmlns:v="https://vecta.io/nano"><path fill="#4285f4" d="M125.4 65.5c0-4.5-.4-8.9-1.2-13.1H64v24.8h34.4c-1.5 8-6 14.8-12.8 19.3v16.1h20.7c12.2-11.2 19.1-27.7 19.1-47.1h0z"/><path fill="#34a853" d="M64 128c17.3 0 31.8-5.7 42.4-15.5L85.7 96.4c-5.7 3.8-13.1 6.1-21.7 6.1-16.7 0-30.8-11.3-35.8-26.4H6.8v16.6C17.3 113.7 39 128 64 128h0z"/><path fill="#fbbc05" d="M28.2 76.2c-1.3-3.8-2-7.9-2-12.2s.7-8.3 2-12.2V35.3H6.8C2.5 43.9 0 53.7 0 64s2.5 20.1 6.8 28.7l21.4-16.5h0z"/><path fill="#ea4335" d="M64 25.5c9.4 0 17.8 3.2 24.5 9.6l18.4-18.4C95.7 6.3 81.3 0 64 0 39 0 17.3 14.3 6.8 35.3l21.4 16.6c5-15.2 19.1-26.4 35.8-26.4h0z"/></svg>