<svg xmlns="http://www.w3.org/2000/svg" baseProfile="tiny" viewBox="0 0 128 128" overflow="visible" xmlns:v="https://vecta.io/nano"><path fill-rule="evenodd" fill="#fff" d="M128 26.5c-4.7 2.1-9.8 3.5-15 4.2 5.4-3.2 9.6-8.4 11.5-14.5-5.1 3-10.7 5.2-16.6 6.4-4.8-5.1-11.6-8.3-19.2-8.3-14.5 0-26.2 11.7-26.2 26.2 0 2 .2 4 .6 6C41.2 45.4 22 35 9.1 19.1c-2.3 3.8-3.6 8.3-3.6 13.1 0 9.1 4.6 17.2 11.7 21.8-4.3-.1-8.3-1.3-11.9-3.3v.3c0 12.7 9.1 23.3 21 25.7-2.2.6-4.5 1-6.9 1-1.7 0-3.3-.2-4.9-.4 3.3 10.4 13 18 24.5 18.2-9 7-20.2 11.2-32.6 11.2-2.1 0-4.2-.1-6.3-.3 11.6 7.5 25.4 11.8 40.2 11.8 48.3 0 74.6-40 74.6-74.6 0-1.2 0-2.2-.1-3.4 5.2-3.8 9.7-8.4 13.2-13.7"/></svg>