<svg xmlns="http://www.w3.org/2000/svg" baseProfile="tiny" viewBox="0 0 512 512" overflow="visible" xmlns:v="https://vecta.io/nano"><path fill="#ffffff" d="M448.8 80.5h-55.5-6.1-12.1V62.2h0v-1.8c0-1.1-.1-2.2-.2-3.2-2.7-32-30.7-57.2-65-57.2H202c-34.2 0-62.3 25.1-65 57.2-.1 1-.2 2.2-.2 3.2v1.8h0v18.3h-12.1-6.1-55.4c-17.9 0-32.4 14.4-32.4 32.4v6.1c0 17.9 14.4 32.4 32.4 32.4h23.1v322 6.1c0 17.9 14.4 32.4 32.4 32.4h6.1 262.5 6.1 0c17.9 0 32.4-14.4 32.4-32.4v-6.1-.3-321.7H449c17.9 0 32.4-14.4 32.4-32.4v-6.1c-.2-17.9-14.6-32.4-32.6-32.4zm-262.3-4.8c0-10.9 7.1-20.2 17-24.1 7.4-2.8 15.5-4.3 23.9-4.3h57.3c8.5 0 16.6 1.5 24 4.4 9.9 3.9 16.9 13.2 16.9 24.1v4.8h-139v-4.9zM354.9 441H157.1V151.4h197.8V441z"/></svg>