<svg xmlns="http://www.w3.org/2000/svg" baseProfile="tiny" viewBox="0 0 128 128" overflow="visible" xmlns:v="https://vecta.io/nano"><path fill-rule="evenodd" fill="#fff" d="M0 64c0 11.7 2.9 22.5 8.6 32.1 5.8 9.9 13.5 17.7 23.3 23.3s20.5 8.5 32.1 8.5 22.3-2.9 32.2-8.5c9.8-5.8 17.6-13.5 23.2-23.3S128 75.5 128 64c0-11.7-2.9-22.5-8.5-32.2C113.6 22 105.8 14.3 96 8.6S75.5.1 63.9.1C52.2.1 41.5 3 31.9 8.7 22 14.4 14.2 22.1 8.5 31.9S0 52.5 0 64h0zm10.7 0c0-7.1 1.4-14 4.2-20.6S21.5 31 26.4 26.2c4.8-4.8 10.6-8.6 17.2-11.4s13.3-4.2 20.5-4.2c7.1 0 14 1.4 20.6 4.2s12.4 6.6 17.2 11.4 8.6 10.6 11.4 17.2 4.2 13.4 4.2 20.6c0 7.7-1.6 14.9-4.7 21.8s-7.6 12.9-13.2 17.9-12.1 8.7-19.4 11V96c0-4.7-1.9-8.3-5.8-10.9 9.4-.9 16.2-3.2 20.6-7.1s6.5-10.1 6.5-18.7c0-6.6-2-12.1-6.1-16.6.9-2.3 1.2-4.7 1.2-6.9 0-3.3-.7-6.3-2.2-9.1-3 0-5.6.5-8 1.5-2.3 1-5.2 2.7-8.6 5.1-4.2-1-8.4-1.4-12.8-1.4-5 0-9.7.5-14.1 1.5-3.3-2.5-6.2-4.2-8.6-5.1s-5.1-1.5-8.2-1.5c-1.5 2.8-2.2 5.9-2.2 9.1 0 2.3.4 4.7 1.2 7-4 4.4-6.1 9.8-6.1 16.5 0 8.5 2.1 14.7 6.5 18.5s11.2 6.3 20.7 7.1c-2.6 1.7-4.3 4.2-5.2 7.4-2.1.7-4.5 1.2-6.8 1.2-1.8 0-3.3-.4-4.6-1.2-.4-.2-.7-.4-1.1-.7-.3-.3-.6-.5-1.1-.9-.4-.3-.6-.6-.9-.9-.2-.2-.5-.5-.9-1.1s-.6-.9-.7-1-.4-.5-.9-1.1c-.4-.5-.6-.9-.7-1-2.1-2.8-4.6-4.2-7.5-4.2-1.6 0-2.3.3-2.3 1 0 .2.4.7 1.2 1.3l2.2 2c1.1.9 1.7 1.4 1.8 1.6 1.3 1.6 2.2 3.3 3 5.2 2.6 5.6 6.8 8.4 12.8 8.4 1 0 2.9-.2 5.8-.6v14.1c-7.2-2.2-13.7-6-19.4-11s-10.1-11-13.2-17.9-5-13.9-5-21.6h0z"/></svg>