<svg xmlns="http://www.w3.org/2000/svg" baseProfile="tiny" viewBox="0 0 64 64" overflow="visible" xmlns:v="https://vecta.io/nano"><g fill="#1c3aa9"><path d="M64 32h0 0z"/><path d="M64 32v-1.4V4.7l-7.2 7.2C50.9 4.7 42 .1 32 .1h-.2v16.3h.2c.5 0 .9.1 1.1.2 5 .4 9.3 3.1 11.8 7.1L36.6 32H64zm-45.3-8l-.1.1s.1 0 .1-.1z"/></g><path d="M31.9.1h0-1.4H4.6l7.2 7.2A31.77 31.77 0 0 0 0 32v.2-.2h0 16.3c0-.5.1-.9.2-1.1.2-2.5 1-4.8 2.2-6.8l.1-.1a14.36 14.36 0 0 1 4.9-4.9l8.3 8.3v-11L31.9.1h0zM7.2 52.2h0a34.47 34.47 0 0 0 5.4 5.4l.1-.1c-2-1.6-3.9-3.4-5.5-5.3z" fill="#4285f4"/><path fill="#ababab" d="M0 32h0v.2 1.2 25.9l7.1-7.1h0c1.6 2 3.5 3.7 5.5 5.3 5.4 4.1 12 6.5 19.3 6.5 10.4 0 19.6-5 25.5-12.6l-11.7-12c-1.1 2.1-2.8 3.9-4.8 5.3-2 1.6-5 2.9-9 2.9-.5 0-.9-.1-1.1-.2-5-.4-9.3-3.1-11.8-7.1l8.3-8.3h-11c-6.9.1-13.1.1-16.3 0z"/></svg>