<svg xmlns="http://www.w3.org/2000/svg" baseProfile="tiny" viewBox="0 0 512 512" overflow="visible" xmlns:v="https://vecta.io/nano"><path fill="#ffffff" d="M126.8 123.9c48.4-48.4 117-64.4 178.7-47.8L284 97.6c-.6.6-1.2 1.2-1.7 1.8l-.1.1c-.5.6-1.1 1.3-1.5 2l-.1.1-1.3 2c0 .1-.1.1-.1.2-.4.8-.8 1.4-1.1 2.1 0 .1-.1.2-.1.2-.3.8-.5 1.5-.8 2.1 0 .1-.1.2-.1.3-.2.8-.4 1.5-.5 2.3 0 .1-.1.2-.1.3-.1.8-.3 1.6-.3 2.5v.2c-.2 1.8-.2 3.6 0 5.5v.2l.3 2.5c0 .1 0 .2.1.3.2.8.3 1.5.5 2.3 0 .1.1.2.1.3.2.8.5 1.5.8 2.3 0 .1.1.2.1.2.3.8.6 1.5 1.1 2.1 0 0 .1.1.1.2.4.8.9 1.4 1.3 2l.1.1c.4.6 1 1.3 1.5 1.9l.1.1c.5.6 1.1 1.3 1.7 1.8.6.6 1.2 1.2 1.8 1.7l.1.1c.6.5 1.3 1.1 1.9 1.5l.1.1 2 1.3c.1 0 .1.1.2.1.8.4 1.4.8 2.1 1.1.1 0 .2.1.2.1.8.3 1.5.5 2.3.8.1 0 .2.1.3.1l2.3.6c.1 0 .2 0 .3.1.8.1 1.6.3 2.5.3h.2c.9.1 1.8.1 2.7.1h90c7.5 0 14.3-3 19.2-7.9s7.9-11.7 7.9-19.2v-89c0-7-2.6-13.2-6.9-18-.2-.3-.5-.6-.9-1l-.3-.3v-.3A27.5 27.5 0 0 0 392.7 0c-7 0-14 2.7-19.2 7.9l-16.1 16.2C265.7-15.7 154.9 1.9 79.9 77 14.5 142.4-7.3 234.9 14.6 318.4l.6 2.3c.2 1.1.5 2 .9 3.1 1.6 4.4 4.2 8.6 7.7 12.1 4 4 8.7 6.8 13.7 8.3 2.9.9 5.9 1.4 9 1.4 8.8.2 17.6-3 24.3-9.7 9.2-9.2 11.9-22.5 7.9-34.1-16.1-61.6-.1-129.7 48.1-177.9zm370.6 69.7c-.1-.8-.3-1.6-.5-2.4-.2-1-.5-2-1-3-1.6-4.4-4.2-8.6-7.7-12.1-4-4-8.7-6.8-13.7-8.3-2.9-.9-5.9-1.4-9-1.4-8.8-.2-17.6 3-24.3 9.7-9.2 9.2-11.9 22.5-7.9 34.1 16.1 61.5.1 129.7-48.1 177.9-48.4 48.4-117 64.4-178.7 47.8l21.5-21.5c.6-.6 1.2-1.2 1.7-1.8l.1-.1c.5-.6 1.1-1.3 1.5-2l.1-.1 1.3-2c0-.1.1-.1.1-.2.4-.8.8-1.4 1.1-2.1 0-.1.1-.2.1-.2.3-.8.5-1.5.8-2.1 0-.1.1-.2.1-.3.2-.8.4-1.5.5-2.3 0-.1.1-.2.1-.3.1-.8.3-1.6.3-2.5v-.2c.2-1.8.2-3.6 0-5.5v-.2l-.3-2.5c0-.1 0-.2-.1-.3-.2-.8-.3-1.5-.5-2.3 0-.1-.1-.2-.1-.3-.2-.8-.5-1.5-.8-2.3 0-.1-.1-.2-.1-.2-.3-.8-.6-1.5-1.1-2.1 0 0-.1-.1-.1-.2-.4-.8-.9-1.4-1.3-2l-.1-.1c-.4-.6-1-1.3-1.5-1.9l-.1-.1c-.5-.6-1.1-1.3-1.7-1.8-.6-.6-1.2-1.2-1.8-1.7l-.1-.1c-.6-.5-1.3-1.1-1.9-1.5l-.1-.1-2-1.3c-.1 0-.1-.1-.2-.1-.8-.4-1.4-.8-2.1-1.1-.1 0-.2-.1-.2-.1-.8-.3-1.5-.5-2.3-.8-.1 0-.2-.1-.3-.1l-2.3-.6c-.1 0-.2 0-.3-.1-.8-.1-1.6-.3-2.5-.3h-.2c-.9-.1-1.8-.1-2.7-.1h-89.8c-7.5 0-14.3 3-19.2 7.9s-7.9 11.7-7.9 19.2v89.3c0 7 2.6 13.2 6.9 18 .2.3.5.6.9 1l.3.3c.1.1.1.1.1.2 5.4 5.4 12.3 7.9 19.2 7.9 7 0 14-2.7 19.2-7.9l16.2-16.2c91.8 39.8 202.5 22.2 277.6-52.8 65-65.7 86.8-158.2 64.9-241.7z"/></svg>