<svg xmlns="http://www.w3.org/2000/svg" baseProfile="tiny" viewBox="0 0 512 512" overflow="visible" fill="#fff" xmlns:v="https://vecta.io/nano"><path d="M511.2 261.3c.1-8.3-3.2-16.6-9.8-22.9l-136-129.2c-13.2-12.5-34.5-12.5-47.7 0s-13.2 32.7 0 45.3l79.2 75.2H178c-18.6 0-33.6 14.4-33.6 32 0 17.7 15.1 32 33.6 32h218.2l-78.5 74.5c-13.2 12.5-13.2 32.7 0 45.3 13.2 12.5 34.5 12.5 47.7 0l136-129.2c.4-.3.8-.8 1.2-1.2.1-.2.3-.3.6-.6.1-.2.4-.4.6-.6s.4-.6.7-.8c.1-.1.2-.3.4-.6s.4-.6.7-.8c.1-.1.2-.3.3-.4.2-.3.4-.6.7-.9.1-.1.2-.3.3-.4.1-.3.4-.6.6-.9.1-.1.2-.3.3-.6s.3-.6.4-.8.2-.3.3-.6c.1-.2.2-.6.4-.8.1-.2.2-.4.3-.7.1-.2.1-.4.3-.7.1-.3.2-.6.3-.8s.1-.3.2-.6l.3-.9c.1-.1.1-.3.1-.6.1-.3.1-.7.3-1 .1-.1.1-.3.1-.6.1-.3.1-.7.2-1 0-.1.1-.3.1-.6.1-.3.1-.7.1-1 0-.2.1-.3.1-.6.1-.3.1-.6.1-1 0-.3.1-.6.1-.8s.1-.6.1-.8c0-.6.1-1 .1-1.5-.5.4-.5.3-.5.2zm-282.7 74.3h0a31.97 31.97 0 0 0-32 32v66H63.9v-355h132.6v66a31.97 31.97 0 0 0 32 32h0a31.97 31.97 0 0 0 32-32v-98h0a31.97 31.97 0 0 0-32-32h0H32h0a31.97 31.97 0 0 0-32 32h0v418.8h0a31.97 31.97 0 0 0 32 32h0 196.5 0a31.97 31.97 0 0 0 32-32h0v-98c-.1-17.6-14.5-31.8-32-31.8z"/></svg>