<svg xmlns="http://www.w3.org/2000/svg" baseProfile="tiny" viewBox="0 0 512 512" overflow="visible" xmlns:v="https://vecta.io/nano"><path fill="#fff" d="M511.1 256c.1-12.1-4.4-24.3-13.8-33.6L308.1 33c-18.3-18.3-48-18.3-66.4 0h0c-18.3 18.3-18.3 48 0 66.4l110.2 110.2H47.2c-25.9 0-46.8 21-46.8 46.8h0c0 25.9 21 46.8 46.8 46.8h303.9L241.7 412.6c-18.3 18.3-18.3 48 0 66.4h0c18.3 18.3 48 18.3 66.4 0l189.3-189.3c.5-.5 1.1-1.1 1.6-1.7.2-.3.4-.5.8-.9.2-.3.5-.7.8-.9.3-.3.5-.8.9-1.1.2-.2.3-.4.5-.8.3-.4.5-.8.9-1.2.1-.2.3-.4.4-.7.3-.4.5-.9.9-1.3.1-.2.3-.4.4-.7a9.13 9.13 0 0 1 .8-1.3c.1-.2.3-.4.4-.8.2-.4.4-.8.7-1.2.1-.3.3-.5.4-.9.2-.3.3-.8.5-1.1.1-.3.3-.7.4-1s.2-.7.4-1c.1-.4.3-.8.4-1.2.1-.3.2-.5.3-.9s.3-.9.4-1.3c.1-.2.1-.5.2-.8.1-.4.2-1 .4-1.4.1-.2.1-.5.2-.8l.3-1.5c0-.2.1-.5.1-.8.1-.5.2-1 .2-1.5 0-.3.1-.5.1-.9.1-.4.1-.9.2-1.4 0-.4.1-.8.1-1.2 0-.3.1-.8.1-1.1 0-.8.1-1.5.1-2.3h0 0 0c-.1.3-.2.1-.2 0z"/></svg>